# xmcd CD database file
#
# Track frame offsets:
#	150
#	11503
#	21076
#	31092
#	43752
#	54176
#	64555
#	75241
#	86846
#	97225
#	106180
#	115975
#	127891
#	140050
#	151675
#	161156
#	173864
#	183907
#	195443
#	207556
#	217205
#
# Disc length: 3098 seconds
#
# Revision: 0
# Processed by: cddbd v1.5.2PL0 Copyright (c) Steve Scherf et al.
# Submitted via: CDex 1.70beta2
#
DISCID=170c1815
DTITLE=Jerry Reed - Smell The Flowers and Me And Chet
DYEAR=2018
DGENRE=Country
TTITLE0=Smell The Flowers
TTITLE1=Don't Get Heavy
TTITLE2=Endless Miles Of Highway
TTITLE3=Take It Easy (In Your Mind)
TTITLE4=It Don't Work That Way
TTITLE5=If I Ever (Love Again)
TTITLE6=My Guitar And My Song
TTITLE7=Don't Let The Good Life Pass You By
TTITLE8=It Ain't Home But It Ain't Bad
TTITLE9=Pave Your Way Into Tomorrow
TTITLE10=Jerry's Breakdown
TTITLE11=Limehouse Blues
TTITLE12=Liebestraum
TTITLE13=Serenade To Summertime
TTITLE14=Nashtown Ville
TTITLE15=Mystery Train
TTITLE16=The Mad Russian
TTITLE17=Flying South
TTITLE18=Good Stuff
TTITLE19=All I Ever Need Is You
TTITLE20=I Saw The Light
EXTD=YEAR: 2018
EXTT0=
EXTT1=
EXTT2=
EXTT3=
EXTT4=
EXTT5=
EXTT6=
EXTT7=
EXTT8=
EXTT9=
EXTT10=
EXTT11=
EXTT12=
EXTT13=
EXTT14=
EXTT15=
EXTT16=
EXTT17=
EXTT18=
EXTT19=
EXTT20=
PLAYORDER=
